<svg width="24" height="24" viewBox="0 0 24 24" fill="none" xmlns="http://www.w3.org/2000/svg">
<path d="M6.4 10.9C4 10.9 2 8.9 2 6.4C2 3.9 4 2 6.4 2C8.8 2 10.8 4 10.8 6.4C10.8 8.8 8.9 10.9 6.4 10.9ZM6.4 4.2C5.2 4.2 4.2 5.2 4.2 6.4C4.2 7.6 5.2 8.6 6.4 8.6C7.6 8.6 8.6 7.6 8.6 6.4C8.6 5.2 7.7 4.2 6.4 4.2ZM6.4 22C4 22 2 20 2 17.6C2 15.2 4 13.2 6.4 13.2C8.8 13.2 10.8 15.2 10.8 17.6C10.8 20 8.9 22 6.4 22ZM6.4 15.3C5.2 15.3 4.2 16.3 4.2 17.5C4.2 18.7 5.2 19.7 6.4 19.7C7.6 19.7 8.6 18.7 8.6 17.5C8.6 16.3 7.7 15.3 6.4 15.3ZM17.6 10.9C15.1 10.9 13.2 8.9 13.2 6.5C13.2 4.1 15.2 2.1 17.6 2.1C20 2.1 22 4 22 6.4C22 8.8 20 10.9 17.6 10.9ZM17.6 4.2C16.4 4.2 15.4 5.2 15.4 6.4C15.4 7.6 16.4 8.6 17.6 8.6C18.8 8.6 19.8 7.6 19.8 6.4C19.8 5.2 18.8 4.2 17.6 4.2ZM17.6 22C15.1 22 13.2 20 13.2 17.6C13.2 15.2 15.2 13.2 17.6 13.2C20 13.2 22 15.2 22 17.6C22 20 20 22 17.6 22ZM17.6 15.3C16.4 15.3 15.4 16.3 15.4 17.5C15.4 18.7 16.4 19.7 17.6 19.7C18.8 19.7 19.8 18.7 19.8 17.5C19.8 16.3 18.8 15.3 17.6 15.3Z" fill="#D4D4D4"/>
</svg>
