<svg width="24" height="24" viewBox="0 0 24 24" fill="none" xmlns="http://www.w3.org/2000/svg">
<path fill-rule="evenodd" clip-rule="evenodd" d="M6.48225 3H7.76775C8.21865 3 8.58233 2.99999 8.87835 3.02019C9.1827 3.04096 9.45187 3.08474 9.70672 3.1903C10.3193 3.44404 10.806 3.93071 11.0597 4.54328C11.1653 4.79813 11.209 5.0673 11.2298 5.37165C11.25 5.66768 11.25 6.03135 11.25 6.48225V7.76775C11.25 8.21865 11.25 8.58236 11.2298 8.87835C11.209 9.1827 11.1653 9.45187 11.0597 9.70672C10.806 10.3193 10.3193 10.806 9.70672 11.0597C9.45187 11.1653 9.1827 11.209 8.87835 11.2298C8.58233 11.25 8.21865 11.25 7.76775 11.25H6.48225C6.03135 11.25 5.66768 11.25 5.37165 11.2298C5.0673 11.209 4.79813 11.1653 4.54328 11.0597C3.93071 10.806 3.44404 10.3193 3.1903 9.70672C3.08474 9.45187 3.04096 9.1827 3.02019 8.87835C2.99999 8.58233 3 8.21865 3 7.76775V6.48225C3 6.03135 2.99999 5.66768 3.02019 5.37165C3.04096 5.0673 3.08474 4.79813 3.1903 4.54328C3.44404 3.93071 3.93071 3.44404 4.54328 3.1903C4.79813 3.08474 5.0673 3.04096 5.37165 3.02019C5.66768 2.99999 6.03135 3 6.48225 3ZM5.43971 4.01786C5.18625 4.03515 5.03865 4.06751 4.92596 4.11416C4.55843 4.26641 4.26641 4.55843 4.11416 4.92596C4.06751 5.03865 4.03515 5.18625 4.01786 5.43971C4.00028 5.69768 4.00001 6.02722 4.00001 6.49999V7.75001C4.00001 8.22278 4.00028 8.55233 4.01786 8.81029C4.03515 9.06375 4.06751 9.21135 4.11416 9.32404C4.26641 9.69157 4.55843 9.98359 4.92596 10.1358C5.03865 10.1825 5.18625 10.2148 5.43971 10.2321C5.69768 10.2497 6.02722 10.25 6.49999 10.25H7.75001C8.22278 10.25 8.55233 10.2497 8.81029 10.2321C9.06375 10.2148 9.21135 10.1825 9.32404 10.1358C9.69157 9.98359 9.98359 9.69157 10.1358 9.32404C10.1825 9.21135 10.2148 9.06375 10.2321 8.81029C10.2497 8.55233 10.25 8.22278 10.25 7.75001V6.49999C10.25 6.02722 10.2497 5.69768 10.2321 5.43971C10.2148 5.18625 10.1825 5.03865 10.1358 4.92596C9.98359 4.55843 9.69157 4.26641 9.32404 4.11416C9.21135 4.06751 9.06375 4.03515 8.81029 4.01786C8.55233 4.00028 8.22278 4.00001 7.75001 4.00001H6.49999C6.02722 4.00001 5.69768 4.00028 5.43971 4.01786ZM6.48225 12.75H7.76775C8.21865 12.75 8.58233 12.75 8.87835 12.7702C9.1827 12.7909 9.45187 12.8347 9.70672 12.9403C10.3193 13.194 10.806 13.6807 11.0597 14.2933C11.1653 14.5481 11.209 14.8173 11.2298 15.1217C11.25 15.4177 11.25 15.7813 11.25 16.2322V17.5178C11.25 17.9687 11.25 18.3324 11.2298 18.6283C11.209 18.9327 11.1653 19.2019 11.0597 19.4567C10.806 20.0693 10.3193 20.556 9.70672 20.8097C9.45187 20.9153 9.1827 20.9591 8.87835 20.9798C8.58233 21 8.21865 21 7.76775 21H6.48225C6.03135 21 5.66768 21 5.37165 20.9798C5.0673 20.9591 4.79813 20.9153 4.54328 20.8097C3.93071 20.556 3.44404 20.0693 3.1903 19.4567C3.08474 19.2019 3.04096 18.9327 3.02019 18.6283C2.99999 18.3323 3 17.9687 3 17.5178V16.2322C3 15.7813 2.99999 15.4177 3.02019 15.1217C3.04096 14.8173 3.08474 14.5481 3.1903 14.2933C3.44404 13.6807 3.93071 13.194 4.54328 12.9403C4.79813 12.8347 5.0673 12.7909 5.37165 12.7702C5.66768 12.75 6.03135 12.75 6.48225 12.75ZM5.43971 13.7679C5.18625 13.7851 5.03865 13.8175 4.92596 13.8642C4.55843 14.0164 4.26641 14.3084 4.11416 14.676C4.06751 14.7886 4.03515 14.9363 4.01786 15.1897C4.00028 15.4477 4.00001 15.7772 4.00001 16.25V17.5C4.00001 17.9728 4.00028 18.3023 4.01786 18.5603C4.03515 18.8137 4.06751 18.9614 4.11416 19.074C4.26641 19.4416 4.55843 19.7336 4.92596 19.8858C5.03865 19.9325 5.18625 19.9649 5.43971 19.9821C5.69768 19.9997 6.02722 20 6.49999 20H7.75001C8.22278 20 8.55233 19.9997 8.81029 19.9821C9.06375 19.9649 9.21135 19.9325 9.32404 19.8858C9.69157 19.7336 9.98359 19.4416 10.1358 19.074C10.1825 18.9614 10.2148 18.8137 10.2321 18.5603C10.2497 18.3023 10.25 17.9728 10.25 17.5V16.25C10.25 15.7772 10.2497 15.4477 10.2321 15.1897C10.2148 14.9363 10.1825 14.7886 10.1358 14.676C9.98359 14.3084 9.69157 14.0164 9.32404 13.8642C9.21135 13.8175 9.06375 13.7851 8.81029 13.7679C8.55233 13.7503 8.22278 13.75 7.75001 13.75H6.49999C6.02722 13.75 5.69768 13.7503 5.43971 13.7679ZM16.2322 3H17.5178C17.9687 3 18.3323 2.99999 18.6283 3.02019C18.9327 3.04096 19.2019 3.08474 19.4567 3.1903C20.0693 3.44404 20.556 3.93071 20.8097 4.54328C20.9153 4.79813 20.9591 5.0673 20.9798 5.37165C21 5.66768 21 6.03135 21 6.48225V7.76775C21 8.21865 21 8.58236 20.9798 8.87835C20.9591 9.1827 20.9153 9.45187 20.8097 9.70672C20.556 10.3193 20.0693 10.806 19.4567 11.0597C19.2019 11.1653 18.9327 11.209 18.6283 11.2298C18.3323 11.25 17.9687 11.25 17.5178 11.25H16.2322C15.7813 11.25 15.4177 11.25 15.1217 11.2298C14.8173 11.209 14.5481 11.1653 14.2933 11.0597C13.6807 10.806 13.194 10.3193 12.9403 9.70672C12.8347 9.45187 12.7909 9.1827 12.7702 8.87835C12.75 8.58233 12.75 8.21865 12.75 7.76775V6.48225C12.75 6.03135 12.75 5.66768 12.7702 5.37165C12.7909 5.0673 12.8347 4.79813 12.9403 4.54328C13.194 3.93071 13.6807 3.44404 14.2933 3.1903C14.5481 3.08474 14.8173 3.04096 15.1217 3.02019C15.4177 2.99999 15.7813 3 16.2322 3ZM15.1897 4.01786C14.9363 4.03515 14.7886 4.06751 14.676 4.11416C14.3084 4.26641 14.0164 4.55843 13.8642 4.92596C13.8175 5.03865 13.7851 5.18625 13.7679 5.43971C13.7503 5.69768 13.75 6.02722 13.75 6.49999V7.75001C13.75 8.22278 13.7503 8.55233 13.7679 8.81029C13.7851 9.06375 13.8175 9.21135 13.8642 9.32404C14.0164 9.69157 14.3084 9.98359 14.676 10.1358C14.7886 10.1825 14.9363 10.2148 15.1897 10.2321C15.4477 10.2497 15.7772 10.25 16.25 10.25H17.5C17.9728 10.25 18.3023 10.2497 18.5603 10.2321C18.8137 10.2148 18.9614 10.1825 19.074 10.1358C19.4416 9.98359 19.7336 9.69157 19.8858 9.32404C19.9325 9.21135 19.9649 9.06375 19.9821 8.81029C19.9997 8.55233 20 8.22278 20 7.75001V6.49999C20 6.02722 19.9997 5.69768 19.9821 5.43971C19.9649 5.18625 19.9325 5.03865 19.8858 4.92596C19.7336 4.55843 19.4416 4.26641 19.074 4.11416C18.9614 4.06751 18.8137 4.03515 18.5603 4.01786C18.3023 4.00028 17.9728 4.00001 17.5 4.00001H16.25C15.7772 4.00001 15.4477 4.00028 15.1897 4.01786ZM16.2322 12.75H17.5178C17.9687 12.75 18.3323 12.75 18.6283 12.7702C18.9327 12.7909 19.2019 12.8347 19.4567 12.9403C20.0693 13.194 20.556 13.6807 20.8097 14.2933C20.9153 14.5481 20.9591 14.8173 20.9798 15.1217C21 15.4177 21 15.7813 21 16.2322V17.5178C21 17.9687 21 18.3324 20.9798 18.6283C20.9591 18.9327 20.9153 19.2019 20.8097 19.4567C20.556 20.0693 20.0693 20.556 19.4567 20.8097C19.2019 20.9153 18.9327 20.9591 18.6283 20.9798C18.3323 21 17.9687 21 17.5178 21H16.2322C15.7813 21 15.4177 21 15.1217 20.9798C14.8173 20.9591 14.5481 20.9153 14.2933 20.8097C13.6807 20.556 13.194 20.0693 12.9403 19.4567C12.8347 19.2019 12.7909 18.9327 12.7702 18.6283C12.75 18.3323 12.75 17.9687 12.75 17.5178V16.2322C12.75 15.7813 12.75 15.4177 12.7702 15.1217C12.7909 14.8173 12.8347 14.5481 12.9403 14.2933C13.194 13.6807 13.6807 13.194 14.2933 12.9403C14.5481 12.8347 14.8173 12.7909 15.1217 12.7702C15.4177 12.75 15.7813 12.75 16.2322 12.75ZM15.1897 13.7679C14.9363 13.7851 14.7886 13.8175 14.676 13.8642C14.3084 14.0164 14.0164 14.3084 13.8642 14.676C13.8175 14.7886 13.7851 14.9363 13.7679 15.1897C13.7503 15.4477 13.75 15.7772 13.75 16.25V17.5C13.75 17.9728 13.7503 18.3023 13.7679 18.5603C13.7851 18.8137 13.8175 18.9614 13.8642 19.074C14.0164 19.4416 14.3084 19.7336 14.676 19.8858C14.7886 19.9325 14.9363 19.9649 15.1897 19.9821C15.4477 19.9997 15.7772 20 16.25 20H17.5C17.9728 20 18.3023 19.9997 18.5603 19.9821C18.8137 19.9649 18.9614 19.9325 19.074 19.8858C19.4416 19.7336 19.7336 19.4416 19.8858 19.074C19.9325 18.9614 19.9649 18.8137 19.9821 18.5603C19.9997 18.3023 20 17.9728 20 17.5V16.25C20 15.7772 19.9997 15.4477 19.9821 15.1897C19.9649 14.9363 19.9325 14.7886 19.8858 14.676C19.7336 14.3084 19.4416 14.0164 19.074 13.8642C18.9614 13.8175 18.8137 13.7851 18.5603 13.7679C18.3023 13.7503 17.9728 13.75 17.5 13.75H16.25C15.7772 13.75 15.4477 13.7503 15.1897 13.7679Z" fill="#848484"/>
</svg>
