<svg width="24" height="24" viewBox="0 0 24 24" fill="none" xmlns="http://www.w3.org/2000/svg">
<g clip-path="url(#clip0_476_55)">
<path d="M17.9977 21.7455C13.9912 21.7455 9.98325 21.7583 5.976 21.7455C4.038 21.7275 2.256 20.0453 2.25 17.997V5.9985C2.27775 5.42175 3.03225 5.034 3.49125 5.4315C3.61725 5.541 3.70425 5.6925 3.7365 5.85675C3.7485 5.919 3.747 5.93475 3.75 5.9985C3.75 10.0073 3.7125 14.016 3.75 18.024C3.768 19.1843 4.77225 20.2343 5.985 20.2455C8.9895 20.2553 11.9932 20.2455 14.9977 20.2455C14.9835 20.2275 14.97 20.2088 14.9565 20.1893C14.4967 19.548 14.25 18.7755 14.2477 17.997V3.7485H3C3 3.7485 2.277 3.5835 2.25075 3.0345C2.232 2.6325 2.583 2.26875 3 2.24925H14.9977C15.4005 2.26725 15.7282 2.58675 15.7477 2.9985C15.7477 8.007 15.7012 13.0163 15.7477 18.024C15.7657 19.1715 16.7535 20.2155 17.952 20.2455C18.0112 20.2388 17.9932 20.2493 18.1282 20.2418C19.2547 20.1743 20.2432 19.1708 20.247 17.9948V11.2478H17.997C17.997 11.2478 17.634 11.208 17.4472 11.0078C17.0895 10.6215 17.2987 9.8445 17.8852 9.756C17.9347 9.7485 17.9475 9.74925 17.997 9.74775H20.997C21.015 9.7485 21.0337 9.74925 21.0525 9.75C21.2242 9.76875 21.2512 9.7875 21.3217 9.822C21.5745 9.9435 21.7357 10.2143 21.7462 10.4978C21.7462 13.005 21.7545 15.513 21.7462 18.0203C21.7282 19.9733 20.0167 21.7388 17.9977 21.7455ZM10.4985 17.2463H7.49925C6.91575 17.235 6.5235 16.4573 6.9435 15.993C7.083 15.8385 7.287 15.7508 7.49925 15.7463H10.4985C10.5082 15.747 10.5187 15.747 10.5285 15.747C11.1832 15.786 11.5155 16.8143 10.8427 17.1623C10.737 17.217 10.62 17.244 10.4985 17.2463ZM11.9985 14.247H5.99925C5.8275 14.2418 5.7705 14.2193 5.67375 14.1728C5.214 13.9508 5.1165 13.2038 5.56575 12.8858C5.65725 12.8205 5.763 12.7763 5.874 12.7575C5.91525 12.7508 5.95725 12.7485 5.99925 12.747H11.9985C12.012 12.7478 12.0262 12.7478 12.0405 12.7485C12.5925 12.795 12.9727 13.5315 12.5572 13.9965C12.4162 14.154 12.273 14.2395 11.9985 14.247ZM11.9985 11.2478H5.99925C5.4255 11.2313 5.01525 10.473 5.4405 9.9975C5.58075 9.84 5.72475 9.75525 5.99925 9.74775H11.9985C12.012 9.74775 12.0262 9.7485 12.0405 9.7485C12.5947 9.79575 12.9607 10.5458 12.5572 10.9973C12.4162 11.1548 12.273 11.2395 11.9985 11.2478ZM11.9985 8.24775H5.99925C5.427 8.232 5.01825 7.47 5.4405 6.99825C5.58075 6.84075 5.72475 6.756 5.99925 6.7485H11.9985C12.012 6.7485 12.0262 6.74925 12.0405 6.74925C12.2122 6.7635 12.267 6.78975 12.3607 6.8415C12.7927 7.08075 12.8722 7.79775 12.432 8.10975C12.3405 8.17425 12.2347 8.2185 12.1237 8.23725C12.0825 8.244 12.0405 8.247 11.9985 8.24775Z" fill="#848484"/>
</g>
<defs>
<clipPath id="clip0_476_55">
<rect width="24" height="24" fill="white"/>
</clipPath>
</defs>
</svg>
